<svg width="800" height="800" viewBox="0 0 800 800" fill="none" xmlns="http://www.w3.org/2000/svg">
<g clip-path="url(#clip0_48_2)">
<path d="M400 0C179.086 0 0 179.084 0 400C0 620.914 179.086 800 400 800C620.914 800 800 620.914 800 400C800 179.084 620.914 0 400 0ZM400 750C207.011 750 50 592.989 50 400C50 207.009 207.011 50 400 50C592.991 50 750 207.009 750 400C750 592.989 592.991 750 400 750Z" fill="url(#paint0_linear_48_2)"/>
<path d="M162.57 568.953H637.937V222.711H162.57V568.953ZM516.543 379.333L587.937 334.662V470.205L516.543 379.333ZM473.911 406.007L562.645 518.951H238.428L326.84 406.442L400.316 452.056L473.911 406.007ZM212.57 470.93V335.503L284.095 379.908L212.57 470.93ZM587.937 272.711V275.686L400.218 393.121L212.57 276.652V272.711H587.937Z" fill="url(#paint1_linear_48_2)"/>
</g>
<defs>
<linearGradient id="paint0_linear_48_2" x1="0" y1="400" x2="800" y2="400" gradientUnits="userSpaceOnUse">
<stop stop-color="#00229E"/>
<stop offset="0.5" stop-color="#6E1299"/>
<stop offset="1" stop-color="#FE0094"/>
</linearGradient>
<linearGradient id="paint1_linear_48_2" x1="162.57" y1="395.832" x2="637.937" y2="395.832" gradientUnits="userSpaceOnUse">
<stop stop-color="#00229E"/>
<stop offset="0.532786" stop-color="#6E1299"/>
<stop offset="1" stop-color="#FE0094"/>
</linearGradient>
<clipPath id="clip0_48_2">
<rect width="800" height="800" fill="white"/>
</clipPath>
</defs>
</svg>
